<?xml version="1.0" encoding="utf-8"?>
<!-- Generator: Adobe Illustrator 19.0.0, SVG Export Plug-In . SVG Version: 6.00 Build 0)  -->
<svg version="1.1" id="Layer_1" xmlns="http://www.w3.org/2000/svg" xmlns:xlink="http://www.w3.org/1999/xlink" x="0px" y="0px"
	 viewBox="-14 32.2 370.3 37.8" style="enable-background:new -14 32.2 370.3 37.8;" xml:space="preserve">
<style type="text/css">
	.st0{fill:none;}
	.st1{fill:#A6ADD7;}
</style>
<rect id="XMLID_295_" x="-10.4" y="34.2" class="st0" width="362.7" height="33.3"/>
<rect id="XMLID_287_" x="-10.4" y="34.2" class="st1" width="7.9" height="33.3"/>
<rect id="XMLID_286_" x="5.7" y="34.2" class="st1" width="7.9" height="33.3"/>
<rect id="XMLID_284_" x="21.8" y="34.2" class="st1" width="7.9" height="33.3"/>
<rect id="XMLID_283_" x="37.9" y="34.2" class="st1" width="7.9" height="33.3"/>
<rect id="XMLID_281_" x="54.1" y="34.2" class="st1" width="7.9" height="33.3"/>
<rect id="XMLID_280_" x="70.2" y="34.2" class="st1" width="7.9" height="33.3"/>
<rect id="XMLID_278_" x="86.3" y="34.2" class="st1" width="7.9" height="33.3"/>
<rect id="XMLID_277_" x="102.4" y="34.2" class="st1" width="7.9" height="33.3"/>
<rect id="XMLID_275_" x="118.6" y="34.2" class="st1" width="7.9" height="33.3"/>
<rect id="XMLID_274_" x="134.7" y="34.2" class="st1" width="7.9" height="33.3"/>
<rect id="XMLID_272_" x="150.8" y="34.2" class="st1" width="7.9" height="33.3"/>
<rect id="XMLID_271_" x="167" y="34.2" class="st1" width="7.9" height="33.3"/>
<rect id="XMLID_269_" x="183.1" y="34.2" class="st1" width="7.9" height="33.3"/>
<rect id="XMLID_268_" x="199.2" y="34.2" class="st1" width="7.9" height="33.3"/>
<rect id="XMLID_266_" x="215.3" y="34.2" class="st1" width="7.9" height="33.3"/>
</svg>
