<?xml version="1.0" encoding="utf-8"?>
<!-- Generator: Adobe Illustrator 19.0.0, SVG Export Plug-In . SVG Version: 6.00 Build 0)  -->
<svg version="1.1" id="Layer_1" xmlns="http://www.w3.org/2000/svg" xmlns:xlink="http://www.w3.org/1999/xlink" x="0px" y="0px"
	 viewBox="-14 32.2 370.3 37.8" style="enable-background:new -14 32.2 370.3 37.8;" xml:space="preserve">
<style type="text/css">
	.st0{fill:none;}
	.st1{fill:#F8EC54;}
</style>
<rect id="XMLID_333_" x="-10.2" y="34.4" class="st0" width="362.7" height="33.3"/>
<rect id="XMLID_318_" x="-10.2" y="34.4" class="st1" width="7.9" height="33.3"/>
<rect id="XMLID_315_" x="5.9" y="34.4" class="st1" width="7.9" height="33.3"/>
<rect id="XMLID_312_" x="22" y="34.4" class="st1" width="7.9" height="33.3"/>
<rect id="XMLID_309_" x="38.1" y="34.4" class="st1" width="7.9" height="33.3"/>
<rect id="XMLID_306_" x="54.3" y="34.4" class="st1" width="7.9" height="33.3"/>
<rect id="XMLID_303_" x="70.4" y="34.4" class="st1" width="7.9" height="33.3"/>
<rect id="XMLID_300_" x="86.5" y="34.4" class="st1" width="7.9" height="33.3"/>
<rect id="XMLID_297_" x="102.6" y="34.4" class="st1" width="7.9" height="33.3"/>
<rect id="XMLID_294_" x="118.8" y="34.4" class="st1" width="7.9" height="33.3"/>
<rect id="XMLID_291_" x="134.9" y="34.4" class="st1" width="7.9" height="33.3"/>
<rect id="XMLID_288_" x="151" y="34.4" class="st1" width="7.9" height="33.3"/>
<rect id="XMLID_285_" x="167.1" y="34.4" class="st1" width="7.9" height="33.3"/>
<rect id="XMLID_282_" x="183.3" y="34.4" class="st1" width="7.9" height="33.3"/>
<rect id="XMLID_279_" x="199.4" y="34.4" class="st1" width="7.9" height="33.3"/>
<rect id="XMLID_276_" x="215.5" y="34.4" class="st1" width="7.9" height="33.3"/>
<rect id="XMLID_273_" x="231.6" y="34.4" class="st1" width="7.9" height="33.3"/>
<rect id="XMLID_270_" x="247.8" y="34.4" class="st1" width="7.9" height="33.3"/>
<rect id="XMLID_267_" x="263.9" y="34.4" class="st1" width="7.9" height="33.3"/>
<rect id="XMLID_264_" x="280.1" y="34.4" class="st1" width="7.9" height="33.3"/>
<rect id="XMLID_261_" x="296.2" y="34.4" class="st1" width="7.9" height="33.3"/>
<rect id="XMLID_202_" x="312.4" y="34.4" class="st1" width="7.9" height="33.3"/>
</svg>
