<?xml version="1.0" encoding="utf-8"?>
<!-- Generator: Adobe Illustrator 19.0.0, SVG Export Plug-In . SVG Version: 6.00 Build 0)  -->
<svg version="1.1" id="Layer_1" xmlns="http://www.w3.org/2000/svg" xmlns:xlink="http://www.w3.org/1999/xlink" x="0px" y="0px"
	 viewBox="0 0 500 500" style="enable-background:new 0 0 500 500;" xml:space="preserve">
<style type="text/css">
	.st0{fill:#283655;}
	.st1{fill:#E8E8E8;stroke:#C8CACA;stroke-miterlimit:10;}
	.st2{fill:#818181;}
	.st3{fill:#CFD0D0;}
	.st4{fill:#ED3426;}
	.st5{fill:#E5D338;}
	.st6{fill:#72BE44;}
	.st7{fill:#C0E0B7;stroke:#A6A8AC;stroke-width:2;stroke-miterlimit:10;}
	.st8{fill:#231F20;}
	.st9{font-family:'MyriadPro-Regular';}
	.st10{font-size:73.6995px;}
</style>
<circle id="XMLID_367_" class="st0" cx="250" cy="253" r="223.6"/>
<g id="XMLID_1_">
	<path id="XMLID_368_" class="st1" d="M379.2,340.3H115.8c-6.6,0-12-5.4-12-12V149.1c0-6.6,5.4-12,12-12h263.4c6.6,0,12,5.4,12,12
		v179.2C391.2,334.9,385.8,340.3,379.2,340.3z"/>
	<path id="XMLID_369_" class="st2" d="M190.6,385.9c22.6-6.2,32.9-26,25.6-45.2l61.3-0.4c-8,19,1.8,38.8,24.2,45.6"/>
	<path id="XMLID_370_" class="st3" d="M304.4,391.6H187.9c-1,0-1.9-0.8-1.9-1.9v-2c0-1,0.8-1.9,1.9-1.9h116.5c1,0,1.9,0.8,1.9,1.9v2
		C306.3,390.8,305.5,391.6,304.4,391.6z"/>
	<circle id="XMLID_373_" class="st4" cx="125.3" cy="153.3" r="7.7"/>
	<circle id="XMLID_375_" class="st5" cx="149" cy="153.3" r="7.7"/>
	<circle id="XMLID_376_" class="st6" cx="172.2" cy="153.3" r="7.7"/>
	<rect id="XMLID_378_" x="103.9" y="168.7" class="st7" width="287.4" height="143.6"/>
	<text id="XMLID_374_" transform="matrix(1 0 0 1 186.0415 257.62)" class="st8 st9 st10">&lt;/&gt;</text>
</g>
</svg>
