<?xml version="1.0" encoding="utf-8"?>
<!-- Generator: Adobe Illustrator 19.0.0, SVG Export Plug-In . SVG Version: 6.00 Build 0)  -->
<svg version="1.1" id="Layer_1" xmlns="http://www.w3.org/2000/svg" xmlns:xlink="http://www.w3.org/1999/xlink" x="0px" y="0px"
	 viewBox="-14 32.2 370.3 37.8" style="enable-background:new -14 32.2 370.3 37.8;" xml:space="preserve">
<style type="text/css">
	.st0{fill:#FFFFFF;}
	.st1{fill:#A1D5E1;}
</style>
<rect id="XMLID_85_" x="-10.5" y="34.5" class="st0" width="362.7" height="33.3"/>
<rect id="XMLID_8_" x="-10.5" y="34.5" class="st1" width="7.9" height="33.3"/>
<rect id="XMLID_7_" x="5.6" y="34.5" class="st1" width="7.9" height="33.3"/>
<rect id="XMLID_6_" x="21.8" y="34.5" class="st1" width="7.9" height="33.3"/>
<rect id="XMLID_5_" x="37.9" y="34.5" class="st1" width="7.9" height="33.3"/>
<rect id="XMLID_16_" x="54" y="34.5" class="st1" width="7.9" height="33.3"/>
<rect id="XMLID_15_" x="70.1" y="34.5" class="st1" width="7.9" height="33.3"/>
<rect id="XMLID_14_" x="86.3" y="34.5" class="st1" width="7.9" height="33.3"/>
<rect id="XMLID_13_" x="102.4" y="34.5" class="st1" width="7.9" height="33.3"/>
<rect id="XMLID_12_" x="118.5" y="34.5" class="st1" width="7.9" height="33.3"/>
<rect id="XMLID_11_" x="134.6" y="34.5" class="st1" width="7.9" height="33.3"/>
<rect id="XMLID_10_" x="150.8" y="34.5" class="st1" width="7.9" height="33.3"/>
<rect id="XMLID_9_" x="166.9" y="34.5" class="st1" width="7.9" height="33.3"/>
<rect id="XMLID_32_" x="183" y="34.5" class="st1" width="7.9" height="33.3"/>
<rect id="XMLID_31_" x="199.1" y="34.5" class="st1" width="7.9" height="33.3"/>
<rect id="XMLID_30_" x="215.3" y="34.5" class="st1" width="7.9" height="33.3"/>
<rect id="XMLID_29_" x="231.4" y="34.5" class="st1" width="7.9" height="33.3"/>
<rect id="XMLID_28_" x="247.5" y="34.5" class="st1" width="7.9" height="33.3"/>
<rect id="XMLID_27_" x="263.6" y="34.5" class="st1" width="7.9" height="33.3"/>
<rect id="XMLID_26_" x="279.8" y="34.5" class="st1" width="7.9" height="33.3"/>
<rect id="XMLID_25_" x="295.9" y="34.5" class="st1" width="7.9" height="33.3"/>
<rect id="XMLID_24_" x="312" y="34.5" class="st1" width="7.9" height="33.3"/>
</svg>
