<?xml version="1.0" encoding="utf-8"?>
<!-- Generator: Adobe Illustrator 19.0.0, SVG Export Plug-In . SVG Version: 6.00 Build 0)  -->
<svg version="1.1" id="Layer_1" xmlns="http://www.w3.org/2000/svg" xmlns:xlink="http://www.w3.org/1999/xlink" x="0px" y="0px"
	 viewBox="-14 32.2 370.3 37.8" style="enable-background:new -14 32.2 370.3 37.8;" xml:space="preserve">
<style type="text/css">
	.st0{fill:none;}
	.st1{fill:#F8AC64;}
</style>
<rect id="XMLID_196_" x="-10.6" y="34.5" class="st0" width="362.7" height="33.3"/>
<rect id="XMLID_191_" x="-10.6" y="34.5" class="st1" width="7.9" height="33.3"/>
<rect id="XMLID_190_" x="5.6" y="34.5" class="st1" width="7.9" height="33.3"/>
<rect id="XMLID_189_" x="21.7" y="34.5" class="st1" width="7.9" height="33.3"/>
<rect id="XMLID_188_" x="37.8" y="34.5" class="st1" width="7.9" height="33.3"/>
<rect id="XMLID_187_" x="53.9" y="34.5" class="st1" width="7.9" height="33.3"/>
<rect id="XMLID_186_" x="70.1" y="34.5" class="st1" width="7.9" height="33.3"/>
<rect id="XMLID_185_" x="86.2" y="34.5" class="st1" width="7.9" height="33.3"/>
<rect id="XMLID_184_" x="102.3" y="34.5" class="st1" width="7.9" height="33.3"/>
<rect id="XMLID_183_" x="118.4" y="34.5" class="st1" width="7.9" height="33.3"/>
<rect id="XMLID_182_" x="134.6" y="34.5" class="st1" width="7.9" height="33.3"/>
<rect id="XMLID_181_" x="150.7" y="34.5" class="st1" width="7.9" height="33.3"/>
<rect id="XMLID_180_" x="166.8" y="34.5" class="st1" width="7.9" height="33.3"/>
<rect id="XMLID_179_" x="182.9" y="34.5" class="st1" width="7.9" height="33.3"/>
<rect id="XMLID_178_" x="199.1" y="34.5" class="st1" width="7.9" height="33.3"/>
<rect id="XMLID_177_" x="215.2" y="34.5" class="st1" width="7.9" height="33.3"/>
<rect id="XMLID_176_" x="231.3" y="34.5" class="st1" width="7.9" height="33.3"/>
<rect id="XMLID_94_" x="247.5" y="34.5" class="st1" width="7.9" height="33.3"/>
<rect id="XMLID_93_" x="263.6" y="34.5" class="st1" width="7.9" height="33.3"/>
<rect id="XMLID_92_" x="279.7" y="34.5" class="st1" width="7.9" height="33.3"/>
<rect id="XMLID_91_" x="295.8" y="34.5" class="st1" width="7.9" height="33.3"/>
</svg>
