<?xml version="1.0" encoding="utf-8"?>
<!-- Generator: Adobe Illustrator 19.0.0, SVG Export Plug-In . SVG Version: 6.00 Build 0)  -->
<svg version="1.1" id="Layer_1" xmlns="http://www.w3.org/2000/svg" xmlns:xlink="http://www.w3.org/1999/xlink" x="0px" y="0px"
	 viewBox="0 0 500 500" style="enable-background:new 0 0 500 500;" xml:space="preserve">
<style type="text/css">
	.st0{fill:#283655;}
	.st1{fill:#EAF3DA;stroke:#FF1751;stroke-width:5;stroke-miterlimit:10;}
	.st2{fill:none;stroke:#D0D2A2;stroke-width:5;stroke-miterlimit:10;}
	.st3{fill:#F8A131;}
	.st4{fill:#F8F5BA;}
	.st5{fill:none;stroke:#231F20;stroke-miterlimit:10;}
	.st6{fill:#231F20;}
</style>
<circle id="XMLID_16_" class="st0" cx="250" cy="250" r="223.6"/>
<path id="XMLID_15_" class="st1" d="M144.3,116.2h203.8c6.6,0,12,5.4,12,12v248.2c0,6.6-5.4,12-12,12H144.3c-6.6,0-12-5.4-12-12
	V128.2C132.3,121.6,137.7,116.2,144.3,116.2z"/>
<line id="XMLID_19_" class="st2" x1="186.7" y1="139.1" x2="302.3" y2="139.1"/>
<line id="XMLID_20_" class="st2" x1="148.7" y1="166.8" x2="339.9" y2="166.8"/>
<line id="XMLID_28_" class="st2" x1="148.7" y1="191.4" x2="339.9" y2="191.4"/>
<line id="XMLID_30_" class="st2" x1="148.7" y1="216" x2="339.9" y2="216"/>
<line id="XMLID_32_" class="st2" x1="148.7" y1="240.6" x2="339.9" y2="240.6"/>
<line id="XMLID_60_" class="st2" x1="148.7" y1="265.2" x2="339.9" y2="265.2"/>
<line id="XMLID_61_" class="st2" x1="148.7" y1="290" x2="302.3" y2="290"/>
<line id="XMLID_347_" class="st2" x1="148.7" y1="312.1" x2="255.5" y2="312.1"/>
<line id="XMLID_343_" class="st2" x1="148.7" y1="336.7" x2="255.5" y2="336.7"/>
<line id="XMLID_62_" class="st2" x1="148.7" y1="361.5" x2="255.5" y2="361.5"/>
<g id="XMLID_358_">
	<g id="XMLID_354_">
		<polygon id="XMLID_25_" class="st3" points="311.7,358.9 296.3,344.4 399.7,230.9 415.1,245.4 		"/>
		<polyline id="XMLID_355_" class="st4" points="311.7,358.9 288.4,370.1 286.2,371.2 296.2,344.6 		"/>
		<path id="XMLID_360_" class="st5" d="M299.2,347.2"/>
		<path id="XMLID_359_" class="st5" d="M402.6,233.6"/>
		<path id="XMLID_361_" class="st5" d="M302.5,349.5"/>
		<path id="XMLID_353_" class="st5" d="M405.9,236"/>
		<path id="XMLID_362_" class="st5" d="M305.5,352.9"/>
		<path id="XMLID_356_" class="st5" d="M408.9,239.4"/>
		<path id="XMLID_363_" class="st5" d="M308.9,356"/>
		<path id="XMLID_357_" class="st5" d="M412.3,242.4"/>
	</g>
	<path id="XMLID_365_" class="st6" d="M290.2,360.6c2.7,0,5.9,2.8,5.7,6l-9.7,4.6L290.2,360.6z"/>
</g>
</svg>
