<?xml version="1.0" encoding="utf-8"?>
<!-- Generator: Adobe Illustrator 19.0.0, SVG Export Plug-In . SVG Version: 6.00 Build 0)  -->
<svg version="1.1" id="Layer_1" xmlns="http://www.w3.org/2000/svg" xmlns:xlink="http://www.w3.org/1999/xlink" x="0px" y="0px"
	 viewBox="0 0 500 500" style="enable-background:new 0 0 500 500;" xml:space="preserve">
<style type="text/css">
	.st0{fill:#283655;}
	.st1{fill:none;stroke:#ADADAD;stroke-width:5;stroke-miterlimit:10;}
	.st2{fill:none;stroke:#FFFFFF;stroke-width:0.5;stroke-miterlimit:10;}
	.st3{fill:#E35239;stroke:#FFFFFF;stroke-width:0.5;stroke-miterlimit:10;}
	.st4{fill:#F8A131;}
	.st5{fill:#EAF3DA;}
	.st6{fill:#A2AAFF;}
	.st7{fill:#F7A28B;}
	.st8{fill:#81C899;}
	.st9{opacity:0.8;fill:#F3B9D4;enable-background:new    ;}
	.st10{fill:#CACACA;}
</style>
<circle id="XMLID_31_" class="st0" cx="250" cy="250" r="223.6"/>
<line id="XMLID_646_" class="st1" x1="109.2" y1="385" x2="109.2" y2="128.1"/>
<line id="XMLID_29_" class="st1" x1="107.2" y1="385" x2="397.1" y2="385"/>
<polyline id="XMLID_218_" class="st2" points="107.6,188.9 107.6,188.9 107.6,188.9 107.6,188.9 "/>
<polyline id="XMLID_217_" class="st2" points="107.6,188.9 107.8,189 107.7,189.3 107.6,188.9 "/>
<polygon id="XMLID_235_" class="st3" points="110.7,264.7 110.6,264.5 110.3,264.5 110.2,264.3 109.9,264.4 109.3,264.5 
	109.7,264.6 110.1,264.8 110.4,264.9 "/>
<path id="XMLID_364_" class="st4" d="M332.6,287.7"/>
<rect id="XMLID_566_" x="122.4" y="344.1" class="st5" width="35.2" height="38.4"/>
<rect id="XMLID_565_" x="177.4" y="321.6" class="st6" width="35.2" height="60.8"/>
<rect id="XMLID_564_" x="232.4" y="302.2" class="st7" width="35.2" height="80.2"/>
<rect id="XMLID_563_" x="287.3" y="257.2" class="st8" width="35.2" height="125.2"/>
<rect id="XMLID_562_" x="342.3" y="196" class="st9" width="35.2" height="186.4"/>
<g id="XMLID_14_">
	<g>
		<g>
			<polygon class="st10" points="316.8,148.1 312.8,170.2 309.1,172.8 312.7,152.9 140.1,272.4 138.3,269.8 310.9,150.3 
				291.1,146.7 294.8,144.1 			"/>
		</g>
	</g>
</g>
</svg>
