<?xml version="1.0" encoding="utf-8"?>
<!-- Generator: Adobe Illustrator 19.0.0, SVG Export Plug-In . SVG Version: 6.00 Build 0)  -->
<svg version="1.1" id="Layer_1" xmlns="http://www.w3.org/2000/svg" xmlns:xlink="http://www.w3.org/1999/xlink" x="0px" y="0px"
	 viewBox="-14 32.2 370.3 37.8" style="enable-background:new -14 32.2 370.3 37.8;" xml:space="preserve">
<style type="text/css">
	.st0{fill:#F16775;}
</style>
<rect id="XMLID_51_" x="-9.4" y="34.2" class="st0" width="7.9" height="33.3"/>
<rect id="XMLID_50_" x="6.8" y="34.2" class="st0" width="7.9" height="33.3"/>
<rect id="XMLID_49_" x="22.9" y="34.2" class="st0" width="7.9" height="33.3"/>
<rect id="XMLID_48_" x="39" y="34.2" class="st0" width="7.9" height="33.3"/>
<rect id="XMLID_47_" x="55.1" y="34.2" class="st0" width="7.9" height="33.3"/>
<rect id="XMLID_46_" x="71.3" y="34.2" class="st0" width="7.9" height="33.3"/>
<rect id="XMLID_45_" x="87.4" y="34.2" class="st0" width="7.9" height="33.3"/>
<rect id="XMLID_44_" x="103.5" y="34.2" class="st0" width="7.9" height="33.3"/>
<rect id="XMLID_43_" x="119.7" y="34.2" class="st0" width="7.9" height="33.3"/>
<rect id="XMLID_42_" x="135.8" y="34.2" class="st0" width="7.9" height="33.3"/>
<rect id="XMLID_41_" x="151.9" y="34.2" class="st0" width="7.9" height="33.3"/>
<rect id="XMLID_40_" x="168" y="34.2" class="st0" width="7.9" height="33.3"/>
<rect id="XMLID_39_" x="184.2" y="34.2" class="st0" width="7.9" height="33.3"/>
<rect id="XMLID_38_" x="200.3" y="34.2" class="st0" width="7.9" height="33.3"/>
<rect id="XMLID_37_" x="216.4" y="34.2" class="st0" width="7.9" height="33.3"/>
<rect id="XMLID_36_" x="232.5" y="34.2" class="st0" width="7.9" height="33.3"/>
<rect id="XMLID_35_" x="248.7" y="34.2" class="st0" width="7.9" height="33.3"/>
<rect id="XMLID_34_" x="264.8" y="34.2" class="st0" width="7.9" height="33.3"/>
<rect id="XMLID_33_" x="280.9" y="34.2" class="st0" width="7.9" height="33.3"/>
<rect id="XMLID_21_" x="297" y="34.2" class="st0" width="7.9" height="33.3"/>
<rect id="XMLID_20_" x="313.2" y="34.2" class="st0" width="7.9" height="33.3"/>
</svg>
