<?xml version="1.0" encoding="utf-8"?>
<!-- Generator: Adobe Illustrator 19.0.0, SVG Export Plug-In . SVG Version: 6.00 Build 0)  -->
<svg version="1.1" id="Layer_1" xmlns="http://www.w3.org/2000/svg" xmlns:xlink="http://www.w3.org/1999/xlink" x="0px" y="0px"
	 viewBox="-14 32.2 370.3 37.8" style="enable-background:new -14 32.2 370.3 37.8;" xml:space="preserve">
<style type="text/css">
	.st0{fill:none;}
	.st1{fill:#B2DCC0;}
</style>
<rect id="XMLID_336_" x="-10.2" y="34.5" class="st0" width="362.7" height="33.3"/>
<rect id="XMLID_329_" x="-10.2" y="34.5" class="st1" width="7.9" height="33.3"/>
<rect id="XMLID_328_" x="5.9" y="34.5" class="st1" width="7.9" height="33.3"/>
<rect id="XMLID_326_" x="22" y="34.5" class="st1" width="7.9" height="33.3"/>
<rect id="XMLID_325_" x="38.1" y="34.5" class="st1" width="7.9" height="33.3"/>
<rect id="XMLID_323_" x="54.3" y="34.5" class="st1" width="7.9" height="33.3"/>
<rect id="XMLID_322_" x="70.4" y="34.5" class="st1" width="7.9" height="33.3"/>
<rect id="XMLID_320_" x="86.5" y="34.5" class="st1" width="7.9" height="33.3"/>
<rect id="XMLID_319_" x="102.6" y="34.5" class="st1" width="7.9" height="33.3"/>
<rect id="XMLID_317_" x="118.8" y="34.5" class="st1" width="7.9" height="33.3"/>
<rect id="XMLID_316_" x="134.9" y="34.5" class="st1" width="7.9" height="33.3"/>
<rect id="XMLID_314_" x="151" y="34.5" class="st1" width="7.9" height="33.3"/>
<rect id="XMLID_313_" x="167.2" y="34.5" class="st1" width="7.9" height="33.3"/>
<rect id="XMLID_311_" x="183.3" y="34.5" class="st1" width="7.9" height="33.3"/>
<rect id="XMLID_310_" x="199.4" y="34.5" class="st1" width="7.9" height="33.3"/>
<rect id="XMLID_308_" x="215.5" y="34.5" class="st1" width="7.9" height="33.3"/>
<rect id="XMLID_307_" x="231.7" y="34.5" class="st1" width="7.9" height="33.3"/>
<rect id="XMLID_305_" x="247.8" y="34.5" class="st1" width="7.9" height="33.3"/>
<rect id="XMLID_304_" x="263.9" y="34.5" class="st1" width="7.9" height="33.3"/>
<rect id="XMLID_302_" x="280" y="34.5" class="st1" width="7.9" height="33.3"/>
<rect id="XMLID_301_" x="296.2" y="34.5" class="st1" width="7.9" height="33.3"/>
<rect id="XMLID_299_" x="312.3" y="34.5" class="st1" width="7.9" height="33.3"/>
</svg>
