<?xml version="1.0" encoding="utf-8"?>
<!-- Generator: Adobe Illustrator 19.0.0, SVG Export Plug-In . SVG Version: 6.00 Build 0)  -->
<svg version="1.1" id="Layer_1" xmlns="http://www.w3.org/2000/svg" xmlns:xlink="http://www.w3.org/1999/xlink" x="0px" y="0px"
	 viewBox="0 0 500 500" style="enable-background:new 0 0 500 500;" xml:space="preserve">
<style type="text/css">
	.st0{fill:#283655;}
	.st1{fill:#FFFFFF;}
	.st2{fill:#C9BFA8;}
	.st3{stroke:#FFFFFF;stroke-width:5;stroke-miterlimit:10;}
	.st4{stroke:#FFFFFF;stroke-width:9;stroke-miterlimit:10;}
</style>
<circle id="XMLID_143_" class="st0" cx="250" cy="250" r="223.6"/>
<g>
	<circle id="XMLID_27_" class="st1" cx="250" cy="270.3" r="87.3"/>
	<path id="XMLID_26_" class="st2" d="M403.1,365.3H96.9c-6.6,0-12-5.4-12-12v-176c0-6.6,5.4-12,12-12h306.2c6.6,0,12,5.4,12,12v176
		C415.1,359.9,409.7,365.3,403.1,365.3z"/>
	<polygon id="XMLID_24_" points="310.4,165.3 190.8,165.3 204.8,135.1 292.6,135.1 	"/>
	<polygon id="XMLID_23_" points="150.3,165.3 107.6,165.3 112.6,150.2 143.9,150.2 	"/>
	<polygon id="XMLID_22_" points="390.4,165.3 347.7,165.3 352.7,150.2 384.1,150.2 	"/>
	<rect id="XMLID_21_" x="85.5" y="213" width="330.2" height="122.5"/>
	<circle id="XMLID_18_" class="st3" cx="251.8" cy="270.1" r="79.4"/>
	<circle id="XMLID_17_" class="st4" cx="252" cy="270.3" r="49.6"/>
</g>
</svg>
